<svg width="26" height="26" viewBox="0 0 26 26" fill="none" xmlns="http://www.w3.org/2000/svg">
<path d="M12.9998 10.8334H4.33317C3.13655 10.8334 2.1665 11.8034 2.1665 13L2.1665 21.6667C2.1665 22.8633 3.13655 23.8334 4.33317 23.8334H12.9998C14.1965 23.8334 15.1665 22.8633 15.1665 21.6667V13C15.1665 11.8034 14.1965 10.8334 12.9998 10.8334Z" stroke="white" stroke-width="2" stroke-linecap="round" stroke-linejoin="round"/>
<path d="M20.1313 15.1667L24.2402 11.0578C24.6757 10.5747 24.9168 9.94735 24.9168 9.29689C24.9168 8.64642 24.6757 8.01903 24.2402 7.53594L18.3703 1.76003C17.8873 1.32445 17.2599 1.08337 16.6094 1.08337C15.9589 1.08337 15.3315 1.32445 14.8485 1.76003L10.8335 5.77499" stroke="white" stroke-width="2" stroke-linecap="round" stroke-linejoin="round"/>
<path d="M6.5 19.5H6.51125" stroke="white" stroke-width="2" stroke-linecap="round" stroke-linejoin="round"/>
<path d="M10.8335 15.1666H10.8447" stroke="white" stroke-width="2" stroke-linecap="round" stroke-linejoin="round"/>
<path d="M16.25 6.5H16.2613" stroke="white" stroke-width="2" stroke-linecap="round" stroke-linejoin="round"/>
<path d="M19.5 9.75H19.5113" stroke="white" stroke-width="2" stroke-linecap="round" stroke-linejoin="round"/>
</svg>
