<svg width="177" height="211" viewBox="0 0 177 211" fill="none" xmlns="http://www.w3.org/2000/svg">
<path opacity="0.7" d="M4.07297 204L11.633 187.2H14.705L22.289 204H19.025L12.521 188.856H13.769L7.28897 204H4.07297ZM7.55297 200.112L8.39297 197.664H17.465L18.305 200.112H7.55297ZM33.8095 191.04C34.8335 191.04 35.7455 191.24 36.5455 191.64C37.3615 192.04 38.0015 192.656 38.4655 193.488C38.9295 194.304 39.1615 195.36 39.1615 196.656V204H36.1615V197.04C36.1615 195.904 35.8895 195.056 35.3455 194.496C34.8175 193.936 34.0735 193.656 33.1135 193.656C32.4095 193.656 31.7855 193.8 31.2415 194.088C30.6975 194.376 30.2735 194.808 29.9695 195.384C29.6815 195.944 29.5375 196.656 29.5375 197.52V204H26.5375V191.184H29.3935V194.64L28.8895 193.584C29.3375 192.768 29.9855 192.144 30.8335 191.712C31.6975 191.264 32.6895 191.04 33.8095 191.04ZM51.1507 204.168C49.8387 204.168 48.6707 203.888 47.6467 203.328C46.6227 202.752 45.8147 201.968 45.2227 200.976C44.6307 199.984 44.3347 198.856 44.3347 197.592C44.3347 196.312 44.6307 195.184 45.2227 194.208C45.8147 193.216 46.6227 192.44 47.6467 191.88C48.6707 191.32 49.8387 191.04 51.1507 191.04C52.4787 191.04 53.6547 191.32 54.6787 191.88C55.7187 192.44 56.5267 193.208 57.1027 194.184C57.6947 195.16 57.9907 196.296 57.9907 197.592C57.9907 198.856 57.6947 199.984 57.1027 200.976C56.5267 201.968 55.7187 202.752 54.6787 203.328C53.6547 203.888 52.4787 204.168 51.1507 204.168ZM51.1507 201.6C51.8867 201.6 52.5427 201.44 53.1187 201.12C53.6947 200.8 54.1427 200.336 54.4627 199.728C54.7987 199.12 54.9667 198.408 54.9667 197.592C54.9667 196.76 54.7987 196.048 54.4627 195.456C54.1427 194.848 53.6947 194.384 53.1187 194.064C52.5427 193.744 51.8947 193.584 51.1747 193.584C50.4387 193.584 49.7827 193.744 49.2067 194.064C48.6467 194.384 48.1987 194.848 47.8627 195.456C47.5267 196.048 47.3587 196.76 47.3587 197.592C47.3587 198.408 47.5267 199.12 47.8627 199.728C48.1987 200.336 48.6467 200.8 49.2067 201.12C49.7827 201.44 50.4307 201.6 51.1507 201.6ZM70.5314 191.04C71.5554 191.04 72.4674 191.24 73.2674 191.64C74.0834 192.04 74.7234 192.656 75.1874 193.488C75.6514 194.304 75.8834 195.36 75.8834 196.656V204H72.8834V197.04C72.8834 195.904 72.6114 195.056 72.0674 194.496C71.5394 193.936 70.7954 193.656 69.8354 193.656C69.1314 193.656 68.5074 193.8 67.9634 194.088C67.4194 194.376 66.9954 194.808 66.6914 195.384C66.4034 195.944 66.2594 196.656 66.2594 197.52V204H63.2594V191.184H66.1154V194.64L65.6114 193.584C66.0594 192.768 66.7074 192.144 67.5554 191.712C68.4194 191.264 69.4114 191.04 70.5314 191.04ZM82.9107 208.824C82.2867 208.824 81.6627 208.72 81.0387 208.512C80.4147 208.304 79.8947 208.016 79.4787 207.648L80.6787 205.44C80.9827 205.712 81.3267 205.928 81.7107 206.088C82.0947 206.248 82.4867 206.328 82.8867 206.328C83.4307 206.328 83.8707 206.192 84.2067 205.92C84.5427 205.648 84.8547 205.192 85.1427 204.552L85.8867 202.872L86.1267 202.512L90.9747 191.184H93.8547L87.8547 205.032C87.4547 205.992 87.0067 206.752 86.5107 207.312C86.0307 207.872 85.4867 208.264 84.8787 208.488C84.2867 208.712 83.6307 208.824 82.9107 208.824ZM85.5507 204.456L79.7667 191.184H82.8867L87.5907 202.248L85.5507 204.456ZM114.306 191.04C115.33 191.04 116.234 191.24 117.018 191.64C117.818 192.04 118.442 192.656 118.89 193.488C119.338 194.304 119.562 195.36 119.562 196.656V204H116.562V197.04C116.562 195.904 116.314 195.056 115.818 194.496C115.322 193.936 114.61 193.656 113.682 193.656C113.026 193.656 112.442 193.8 111.93 194.088C111.434 194.376 111.042 194.8 110.754 195.36C110.482 195.92 110.346 196.632 110.346 197.496V204H107.346V197.04C107.346 195.904 107.098 195.056 106.602 194.496C106.106 193.936 105.394 193.656 104.466 193.656C103.81 193.656 103.226 193.8 102.714 194.088C102.218 194.376 101.826 194.8 101.538 195.36C101.266 195.92 101.13 196.632 101.13 197.496V204H98.1297V191.184H100.986V194.592L100.482 193.584C100.914 192.752 101.538 192.12 102.354 191.688C103.186 191.256 104.13 191.04 105.186 191.04C106.386 191.04 107.426 191.336 108.306 191.928C109.202 192.52 109.794 193.416 110.082 194.616L108.906 194.208C109.322 193.248 110.01 192.48 110.97 191.904C111.93 191.328 113.042 191.04 114.306 191.04ZM131.579 204.168C130.267 204.168 129.099 203.888 128.075 203.328C127.051 202.752 126.243 201.968 125.651 200.976C125.059 199.984 124.763 198.856 124.763 197.592C124.763 196.312 125.059 195.184 125.651 194.208C126.243 193.216 127.051 192.44 128.075 191.88C129.099 191.32 130.267 191.04 131.579 191.04C132.907 191.04 134.083 191.32 135.107 191.88C136.147 192.44 136.955 193.208 137.531 194.184C138.123 195.16 138.419 196.296 138.419 197.592C138.419 198.856 138.123 199.984 137.531 200.976C136.955 201.968 136.147 202.752 135.107 203.328C134.083 203.888 132.907 204.168 131.579 204.168ZM131.579 201.6C132.315 201.6 132.971 201.44 133.547 201.12C134.123 200.8 134.571 200.336 134.891 199.728C135.227 199.12 135.395 198.408 135.395 197.592C135.395 196.76 135.227 196.048 134.891 195.456C134.571 194.848 134.123 194.384 133.547 194.064C132.971 193.744 132.323 193.584 131.603 193.584C130.867 193.584 130.211 193.744 129.635 194.064C129.075 194.384 128.627 194.848 128.291 195.456C127.955 196.048 127.787 196.76 127.787 197.592C127.787 198.408 127.955 199.12 128.291 199.728C128.627 200.336 129.075 200.8 129.635 201.12C130.211 201.44 130.859 201.6 131.579 201.6ZM149.112 204.168C148.024 204.168 147.064 203.968 146.232 203.568C145.4 203.152 144.752 202.528 144.288 201.696C143.824 200.848 143.592 199.784 143.592 198.504V191.184H146.592V198.096C146.592 199.248 146.848 200.112 147.36 200.688C147.888 201.248 148.632 201.528 149.592 201.528C150.296 201.528 150.904 201.384 151.416 201.096C151.944 200.808 152.352 200.376 152.64 199.8C152.944 199.224 153.096 198.512 153.096 197.664V191.184H156.096V204H153.24V200.544L153.744 201.6C153.312 202.432 152.68 203.072 151.848 203.52C151.016 203.952 150.104 204.168 149.112 204.168ZM166.383 204.168C165.311 204.168 164.279 204.032 163.287 203.76C162.311 203.472 161.535 203.128 160.959 202.728L162.111 200.448C162.687 200.816 163.375 201.12 164.175 201.36C164.975 201.6 165.775 201.72 166.575 201.72C167.519 201.72 168.199 201.592 168.615 201.336C169.047 201.08 169.263 200.736 169.263 200.304C169.263 199.952 169.119 199.688 168.831 199.512C168.543 199.32 168.167 199.176 167.703 199.08C167.239 198.984 166.719 198.896 166.143 198.816C165.583 198.736 165.015 198.632 164.439 198.504C163.879 198.36 163.367 198.16 162.903 197.904C162.439 197.632 162.063 197.272 161.775 196.824C161.487 196.376 161.343 195.784 161.343 195.048C161.343 194.232 161.575 193.528 162.039 192.936C162.503 192.328 163.151 191.864 163.983 191.544C164.831 191.208 165.831 191.04 166.983 191.04C167.847 191.04 168.719 191.136 169.599 191.328C170.479 191.52 171.207 191.792 171.783 192.144L170.631 194.424C170.023 194.056 169.407 193.808 168.783 193.68C168.175 193.536 167.567 193.464 166.959 193.464C166.047 193.464 165.367 193.6 164.919 193.872C164.487 194.144 164.271 194.488 164.271 194.904C164.271 195.288 164.415 195.576 164.703 195.768C164.991 195.96 165.367 196.112 165.831 196.224C166.295 196.336 166.807 196.432 167.367 196.512C167.943 196.576 168.511 196.68 169.071 196.824C169.631 196.968 170.143 197.168 170.607 197.424C171.087 197.664 171.471 198.008 171.759 198.456C172.047 198.904 172.191 199.488 172.191 200.208C172.191 201.008 171.951 201.704 171.471 202.296C171.007 202.888 170.343 203.352 169.479 203.688C168.615 204.008 167.583 204.168 166.383 204.168Z" fill="white"/>
<path d="M25.2783 141.839C25.1221 140.264 24.4515 139.04 23.2666 138.167C22.0817 137.295 20.4736 136.859 18.4424 136.859C17.0622 136.859 15.8968 137.054 14.9463 137.445C13.9958 137.822 13.2666 138.35 12.7588 139.027C12.264 139.704 12.0166 140.472 12.0166 141.332C11.9906 142.048 12.1403 142.673 12.4658 143.207C12.8044 143.74 13.2666 144.203 13.8525 144.593C14.4385 144.971 15.1156 145.303 15.8838 145.589C16.652 145.863 17.4723 146.097 18.3447 146.292L21.9385 147.152C23.6833 147.542 25.2848 148.063 26.7432 148.714C28.2015 149.365 29.4645 150.166 30.5322 151.117C31.5999 152.067 32.4268 153.187 33.0127 154.476C33.6117 155.765 33.9176 157.243 33.9307 158.91C33.9176 161.358 33.2926 163.48 32.0557 165.277C30.8317 167.061 29.0609 168.447 26.7432 169.437C24.4385 170.414 21.6585 170.902 18.4033 170.902C15.1742 170.902 12.3617 170.407 9.96582 169.417C7.58301 168.428 5.72103 166.963 4.37988 165.023C3.05176 163.07 2.35514 160.654 2.29004 157.777H10.4736C10.5648 159.118 10.9489 160.238 11.626 161.136C12.3161 162.022 13.234 162.692 14.3799 163.148C15.5387 163.591 16.8473 163.812 18.3057 163.812C19.738 163.812 20.9814 163.604 22.0361 163.187C23.1038 162.77 23.9307 162.191 24.5166 161.449C25.1025 160.707 25.3955 159.854 25.3955 158.89C25.3955 157.992 25.1286 157.236 24.5947 156.625C24.0739 156.013 23.3057 155.492 22.29 155.062C21.2874 154.632 20.057 154.242 18.5986 153.89L14.2432 152.796C10.8708 151.976 8.20801 150.694 6.25488 148.949C4.30176 147.204 3.33171 144.854 3.34473 141.898C3.33171 139.476 3.97624 137.36 5.27832 135.55C6.59342 133.74 8.39681 132.328 10.6885 131.312C12.9801 130.296 15.5843 129.789 18.501 129.789C21.4697 129.789 24.0609 130.296 26.2744 131.312C28.501 132.328 30.2327 133.74 31.4697 135.55C32.7067 137.36 33.3447 139.457 33.3838 141.839H25.2783ZM46.6426 170.902C44.7285 170.902 43.0228 170.57 41.5254 169.906C40.028 169.229 38.8431 168.233 37.9707 166.917C37.1113 165.589 36.6816 163.936 36.6816 161.957C36.6816 160.29 36.9876 158.89 37.5996 157.757C38.2116 156.625 39.0449 155.713 40.0996 155.023C41.1543 154.333 42.3522 153.812 43.6934 153.46C45.0475 153.109 46.4668 152.861 47.9512 152.718C49.696 152.536 51.1022 152.367 52.1699 152.21C53.2376 152.041 54.0124 151.794 54.4941 151.468C54.9759 151.143 55.2168 150.661 55.2168 150.023V149.906C55.2168 148.669 54.8262 147.712 54.0449 147.035C53.2767 146.358 52.1829 146.019 50.7637 146.019C49.2663 146.019 48.0749 146.351 47.1895 147.015C46.304 147.666 45.7181 148.486 45.4316 149.476L37.7363 148.851C38.127 147.028 38.8952 145.453 40.041 144.125C41.1868 142.783 42.6647 141.755 44.4746 141.039C46.2975 140.309 48.4069 139.945 50.8027 139.945C52.4694 139.945 54.0645 140.14 55.5879 140.531C57.1243 140.921 58.485 141.527 59.6699 142.347C60.8678 143.167 61.8118 144.222 62.502 145.511C63.1921 146.787 63.5371 148.317 63.5371 150.101V170.335H55.6465V166.175H55.4121C54.9303 167.113 54.2858 167.94 53.4785 168.656C52.6712 169.359 51.7012 169.912 50.5684 170.316C49.4355 170.707 48.127 170.902 46.6426 170.902ZM49.0254 165.16C50.2493 165.16 51.3301 164.919 52.2676 164.437C53.2051 163.942 53.9408 163.278 54.4746 162.445C55.0085 161.611 55.2754 160.667 55.2754 159.613V156.429C55.015 156.598 54.6569 156.755 54.2012 156.898C53.7585 157.028 53.2572 157.152 52.6973 157.269C52.1374 157.373 51.5775 157.471 51.0176 157.562C50.4577 157.64 49.9499 157.712 49.4941 157.777C48.5176 157.92 47.6647 158.148 46.9355 158.46C46.2064 158.773 45.64 159.196 45.2363 159.73C44.8327 160.251 44.6309 160.902 44.6309 161.683C44.6309 162.816 45.041 163.682 45.8613 164.281C46.6947 164.867 47.7493 165.16 49.0254 165.16ZM72.6797 181.585C71.625 181.585 70.6354 181.501 69.7109 181.332C68.7995 181.175 68.0443 180.973 67.4453 180.726L69.3203 174.515C70.2969 174.815 71.1758 174.977 71.957 175.003C72.7513 175.029 73.4349 174.847 74.0078 174.457C74.5938 174.066 75.069 173.402 75.4336 172.464L75.9219 171.195L65.1602 140.335H73.9102L80.1211 162.367H80.4336L86.7031 140.335H95.5117L83.8516 173.578C83.2917 175.192 82.5299 176.598 81.5664 177.796C80.6159 179.007 79.4115 179.938 77.9531 180.589C76.4948 181.253 74.737 181.585 72.6797 181.585ZM98.5508 130.335H108.98L119.996 157.21H120.465L131.48 130.335H141.91V170.335H133.707V144.3H133.375L123.023 170.14H117.438L107.086 144.203H106.754V170.335H98.5508V130.335ZM161.019 170.921C157.933 170.921 155.276 170.296 153.05 169.046C150.836 167.783 149.131 166 147.933 163.695C146.735 161.377 146.136 158.636 146.136 155.472C146.136 152.386 146.735 149.678 147.933 147.347C149.131 145.016 150.817 143.2 152.991 141.898C155.179 140.596 157.744 139.945 160.687 139.945C162.666 139.945 164.508 140.264 166.214 140.902C167.933 141.527 169.43 142.471 170.706 143.734C171.995 144.997 172.998 146.585 173.714 148.5C174.43 150.401 174.788 152.627 174.788 155.179V157.464H149.456V152.308H166.956C166.956 151.11 166.696 150.049 166.175 149.125C165.654 148.2 164.931 147.477 164.007 146.957C163.095 146.423 162.034 146.156 160.823 146.156C159.56 146.156 158.44 146.449 157.464 147.035C156.5 147.608 155.745 148.382 155.198 149.359C154.651 150.322 154.371 151.397 154.358 152.582V157.484C154.358 158.968 154.632 160.251 155.179 161.332C155.739 162.412 156.526 163.246 157.542 163.832C158.558 164.417 159.762 164.71 161.155 164.71C162.08 164.71 162.926 164.58 163.694 164.32C164.463 164.059 165.12 163.669 165.667 163.148C166.214 162.627 166.631 161.989 166.917 161.234L174.612 161.742C174.222 163.591 173.421 165.205 172.21 166.585C171.012 167.953 169.463 169.02 167.562 169.789C165.674 170.544 163.493 170.921 161.019 170.921Z" fill="white"/>
<path opacity="0.7" d="M117.036 25.2029C92.2034 25.2029 72.0725 45.3339 72.0725 70.1666C72.0725 94.9994 92.2034 115.13 117.036 115.13C123.447 115.128 129.784 113.754 135.621 111.101C137.677 110.167 141.042 109.677 143.236 110.214L153.485 112.725C157.967 113.822 160.692 111.097 159.594 106.616L157.083 96.364C156.546 94.1706 157.036 90.8058 157.971 88.7502C160.623 82.9138 161.997 76.5776 162 70.1666C162 45.3339 141.868 25.2029 117.036 25.2029ZM99.2312 64.2292C100.011 64.2291 100.783 64.3826 101.504 64.6809C102.224 64.9793 102.879 65.4166 103.43 65.968C103.981 66.5193 104.419 67.1739 104.717 67.8943C105.016 68.6147 105.169 69.3869 105.169 70.1666C105.169 70.9464 105.016 71.7186 104.717 72.439C104.419 73.1594 103.981 73.814 103.43 74.3654C102.879 74.9167 102.224 75.354 101.504 75.6524C100.783 75.9507 100.011 76.1042 99.2312 76.1041C97.6565 76.1041 96.1463 75.4786 95.0328 74.3651C93.9193 73.2516 93.2937 71.7414 93.2937 70.1666C93.2937 68.5919 93.9193 67.0817 95.0328 65.9682C96.1463 64.8548 97.6565 64.2292 99.2312 64.2292ZM117.037 64.2292C118.611 64.2292 120.122 64.8548 121.235 65.9682C122.349 67.0817 122.974 68.5919 122.974 70.1666C122.974 70.9464 122.82 71.7186 122.522 72.439C122.224 73.1594 121.786 73.814 121.235 74.3654C120.683 74.9167 120.029 75.354 119.308 75.6524C118.588 75.9507 117.816 76.1042 117.036 76.1041C115.461 76.1039 113.951 75.4783 112.838 74.3648C111.725 73.2513 111.099 71.7412 111.099 70.1666C111.099 68.5921 111.725 67.082 112.838 65.9685C113.951 64.855 115.462 64.2294 117.037 64.2292ZM134.842 64.2292C136.417 64.2292 137.927 64.8548 139.041 65.9682C140.154 67.0817 140.78 68.5919 140.78 70.1666C140.78 71.7414 140.154 73.2516 139.041 74.3651C137.927 75.4786 136.417 76.1041 134.842 76.1041C134.062 76.1042 133.29 75.9507 132.57 75.6524C131.849 75.354 131.195 74.9167 130.643 74.3654C130.092 73.814 129.654 73.1594 129.356 72.439C129.058 71.7186 128.904 70.9464 128.904 70.1666C128.904 69.3869 129.058 68.6147 129.356 67.8943C129.654 67.1739 130.092 66.5193 130.643 65.968C131.195 65.4166 131.849 64.9793 132.57 64.6809C133.29 64.3826 134.062 64.2291 134.842 64.2292Z" fill="white"/>
<g opacity="0.07" filter="url(#filter0_f_302_100)">
<circle cx="77.8914" cy="68.0507" r="47.0797" fill="#4B036D"/>
</g>
<path d="M63.6091 0.869568C89.9024 0.869568 111.217 22.1848 111.217 48.4783C111.217 74.7718 89.9024 96.087 63.6091 96.087C56.8205 96.0843 50.1111 94.6296 43.931 91.8204C41.7537 90.8318 38.191 90.3128 35.8677 90.8817L25.0154 93.5399C20.2705 94.7016 17.3854 91.8165 18.5478 87.0715L21.206 76.2167C21.7749 73.8942 21.2559 70.3315 20.2665 68.1549C17.4578 61.9752 16.0031 55.2663 16 48.4783C16 22.1848 37.3158 0.869568 63.6091 0.869568Z" fill="white"/>
<path d="M56.7167 59.1857V58.2916C56.7342 55.2233 57.006 52.7775 57.5319 50.9541C58.0755 49.1307 58.8644 47.658 59.8989 46.5359C60.9333 45.4138 62.1781 44.3969 63.6333 43.4852C64.7203 42.7839 65.6934 42.0563 66.5525 41.3024C67.4116 40.5485 68.0954 39.7157 68.6038 38.804C69.1123 37.8748 69.3665 36.8404 69.3665 35.7007C69.3665 34.491 69.0772 33.4302 68.4986 32.5186C67.92 31.6069 67.1398 30.9055 66.158 30.4146C65.1937 29.9237 64.1242 29.6783 62.9495 29.6783C61.8099 29.6783 60.7317 29.9325 59.7148 30.4409C58.6979 30.9318 57.8651 31.6682 57.2164 32.65C56.5676 33.6143 56.217 34.8153 56.1644 36.253H45.4344C45.5221 32.7465 46.3636 29.8536 47.9591 27.5743C49.5546 25.2776 51.6673 23.5681 54.2972 22.446C56.9271 21.3064 59.8287 20.7366 63.0021 20.7366C66.4911 20.7366 69.5769 21.3152 72.2594 22.4723C74.9419 23.612 77.0458 25.2688 78.5711 27.4428C80.0965 29.6169 80.8592 32.238 80.8592 35.3062C80.8592 37.3576 80.5173 39.181 79.8335 40.7764C79.1673 42.3544 78.2293 43.757 77.0195 44.9843C75.8097 46.194 74.3808 47.2898 72.7328 48.2716C71.3477 49.0957 70.2081 49.9548 69.3139 50.8489C68.4373 51.7431 67.7798 52.7775 67.3415 53.9522C66.9207 55.1269 66.7015 56.5734 66.684 58.2916V59.1857H56.7167ZM61.9239 76.0171C60.1706 76.0171 58.6716 75.4034 57.4267 74.1762C56.1995 72.9313 55.5946 71.4411 55.6121 69.7053C55.5946 67.9871 56.1995 66.5144 57.4267 65.2871C58.6716 64.0598 60.1706 63.4462 61.9239 63.4462C63.5895 63.4462 65.0535 64.0598 66.3158 65.2871C67.5782 66.5144 68.2181 67.9871 68.2356 69.7053C68.2181 70.8625 67.9113 71.9232 67.3152 72.8875C66.7366 73.8343 65.9739 74.5969 65.0272 75.1755C64.0804 75.7366 63.046 76.0171 61.9239 76.0171Z" fill="#C420DE"/>
<defs>
<filter id="filter0_f_302_100" x="20.2319" y="10.3913" width="115.319" height="115.319" filterUnits="userSpaceOnUse" color-interpolation-filters="sRGB">
<feFlood flood-opacity="0" result="BackgroundImageFix"/>
<feBlend mode="normal" in="SourceGraphic" in2="BackgroundImageFix" result="shape"/>
<feGaussianBlur stdDeviation="5.28986" result="effect1_foregroundBlur_302_100"/>
</filter>
</defs>
</svg>
