<svg width="177" height="211" viewBox="0 0 177 211" fill="none" xmlns="http://www.w3.org/2000/svg">
<path opacity="0.7" d="M4.07297 203.13L11.633 186.33H14.705L22.289 203.13H19.025L12.521 187.986H13.769L7.28897 203.13H4.07297ZM7.55297 199.242L8.39297 196.794H17.465L18.305 199.242H7.55297ZM33.8095 190.17C34.8335 190.17 35.7455 190.37 36.5455 190.77C37.3615 191.17 38.0015 191.786 38.4655 192.618C38.9295 193.434 39.1615 194.49 39.1615 195.786V203.13H36.1615V196.17C36.1615 195.034 35.8895 194.186 35.3455 193.626C34.8175 193.066 34.0735 192.786 33.1135 192.786C32.4095 192.786 31.7855 192.93 31.2415 193.218C30.6975 193.506 30.2735 193.938 29.9695 194.514C29.6815 195.074 29.5375 195.786 29.5375 196.65V203.13H26.5375V190.314H29.3935V193.77L28.8895 192.714C29.3375 191.898 29.9855 191.274 30.8335 190.842C31.6975 190.394 32.6895 190.17 33.8095 190.17ZM51.1507 203.298C49.8387 203.298 48.6707 203.018 47.6467 202.458C46.6227 201.882 45.8147 201.098 45.2227 200.106C44.6307 199.114 44.3347 197.986 44.3347 196.722C44.3347 195.442 44.6307 194.314 45.2227 193.338C45.8147 192.346 46.6227 191.57 47.6467 191.01C48.6707 190.45 49.8387 190.17 51.1507 190.17C52.4787 190.17 53.6547 190.45 54.6787 191.01C55.7187 191.57 56.5267 192.338 57.1027 193.314C57.6947 194.29 57.9907 195.426 57.9907 196.722C57.9907 197.986 57.6947 199.114 57.1027 200.106C56.5267 201.098 55.7187 201.882 54.6787 202.458C53.6547 203.018 52.4787 203.298 51.1507 203.298ZM51.1507 200.73C51.8867 200.73 52.5427 200.57 53.1187 200.25C53.6947 199.93 54.1427 199.466 54.4627 198.858C54.7987 198.25 54.9667 197.538 54.9667 196.722C54.9667 195.89 54.7987 195.178 54.4627 194.586C54.1427 193.978 53.6947 193.514 53.1187 193.194C52.5427 192.874 51.8947 192.714 51.1747 192.714C50.4387 192.714 49.7827 192.874 49.2067 193.194C48.6467 193.514 48.1987 193.978 47.8627 194.586C47.5267 195.178 47.3587 195.89 47.3587 196.722C47.3587 197.538 47.5267 198.25 47.8627 198.858C48.1987 199.466 48.6467 199.93 49.2067 200.25C49.7827 200.57 50.4307 200.73 51.1507 200.73ZM70.5314 190.17C71.5554 190.17 72.4674 190.37 73.2674 190.77C74.0834 191.17 74.7234 191.786 75.1874 192.618C75.6514 193.434 75.8834 194.49 75.8834 195.786V203.13H72.8834V196.17C72.8834 195.034 72.6114 194.186 72.0674 193.626C71.5394 193.066 70.7954 192.786 69.8354 192.786C69.1314 192.786 68.5074 192.93 67.9634 193.218C67.4194 193.506 66.9954 193.938 66.6914 194.514C66.4034 195.074 66.2594 195.786 66.2594 196.65V203.13H63.2594V190.314H66.1154V193.77L65.6114 192.714C66.0594 191.898 66.7074 191.274 67.5554 190.842C68.4194 190.394 69.4114 190.17 70.5314 190.17ZM82.9107 207.954C82.2867 207.954 81.6627 207.85 81.0387 207.642C80.4147 207.434 79.8947 207.146 79.4787 206.778L80.6787 204.57C80.9827 204.842 81.3267 205.058 81.7107 205.218C82.0947 205.378 82.4867 205.458 82.8867 205.458C83.4307 205.458 83.8707 205.322 84.2067 205.05C84.5427 204.778 84.8547 204.322 85.1427 203.682L85.8867 202.002L86.1267 201.642L90.9747 190.314H93.8547L87.8547 204.162C87.4547 205.122 87.0067 205.882 86.5107 206.442C86.0307 207.002 85.4867 207.394 84.8787 207.618C84.2867 207.842 83.6307 207.954 82.9107 207.954ZM85.5507 203.586L79.7667 190.314H82.8867L87.5907 201.378L85.5507 203.586ZM114.306 190.17C115.33 190.17 116.234 190.37 117.018 190.77C117.818 191.17 118.442 191.786 118.89 192.618C119.338 193.434 119.562 194.49 119.562 195.786V203.13H116.562V196.17C116.562 195.034 116.314 194.186 115.818 193.626C115.322 193.066 114.61 192.786 113.682 192.786C113.026 192.786 112.442 192.93 111.93 193.218C111.434 193.506 111.042 193.93 110.754 194.49C110.482 195.05 110.346 195.762 110.346 196.626V203.13H107.346V196.17C107.346 195.034 107.098 194.186 106.602 193.626C106.106 193.066 105.394 192.786 104.466 192.786C103.81 192.786 103.226 192.93 102.714 193.218C102.218 193.506 101.826 193.93 101.538 194.49C101.266 195.05 101.13 195.762 101.13 196.626V203.13H98.1297V190.314H100.986V193.722L100.482 192.714C100.914 191.882 101.538 191.25 102.354 190.818C103.186 190.386 104.13 190.17 105.186 190.17C106.386 190.17 107.426 190.466 108.306 191.058C109.202 191.65 109.794 192.546 110.082 193.746L108.906 193.338C109.322 192.378 110.01 191.61 110.97 191.034C111.93 190.458 113.042 190.17 114.306 190.17ZM131.579 203.298C130.267 203.298 129.099 203.018 128.075 202.458C127.051 201.882 126.243 201.098 125.651 200.106C125.059 199.114 124.763 197.986 124.763 196.722C124.763 195.442 125.059 194.314 125.651 193.338C126.243 192.346 127.051 191.57 128.075 191.01C129.099 190.45 130.267 190.17 131.579 190.17C132.907 190.17 134.083 190.45 135.107 191.01C136.147 191.57 136.955 192.338 137.531 193.314C138.123 194.29 138.419 195.426 138.419 196.722C138.419 197.986 138.123 199.114 137.531 200.106C136.955 201.098 136.147 201.882 135.107 202.458C134.083 203.018 132.907 203.298 131.579 203.298ZM131.579 200.73C132.315 200.73 132.971 200.57 133.547 200.25C134.123 199.93 134.571 199.466 134.891 198.858C135.227 198.25 135.395 197.538 135.395 196.722C135.395 195.89 135.227 195.178 134.891 194.586C134.571 193.978 134.123 193.514 133.547 193.194C132.971 192.874 132.323 192.714 131.603 192.714C130.867 192.714 130.211 192.874 129.635 193.194C129.075 193.514 128.627 193.978 128.291 194.586C127.955 195.178 127.787 195.89 127.787 196.722C127.787 197.538 127.955 198.25 128.291 198.858C128.627 199.466 129.075 199.93 129.635 200.25C130.211 200.57 130.859 200.73 131.579 200.73ZM149.112 203.298C148.024 203.298 147.064 203.098 146.232 202.698C145.4 202.282 144.752 201.658 144.288 200.826C143.824 199.978 143.592 198.914 143.592 197.634V190.314H146.592V197.226C146.592 198.378 146.848 199.242 147.36 199.818C147.888 200.378 148.632 200.658 149.592 200.658C150.296 200.658 150.904 200.514 151.416 200.226C151.944 199.938 152.352 199.506 152.64 198.93C152.944 198.354 153.096 197.642 153.096 196.794V190.314H156.096V203.13H153.24V199.674L153.744 200.73C153.312 201.562 152.68 202.202 151.848 202.65C151.016 203.082 150.104 203.298 149.112 203.298ZM166.383 203.298C165.311 203.298 164.279 203.162 163.287 202.89C162.311 202.602 161.535 202.258 160.959 201.858L162.111 199.578C162.687 199.946 163.375 200.25 164.175 200.49C164.975 200.73 165.775 200.85 166.575 200.85C167.519 200.85 168.199 200.722 168.615 200.466C169.047 200.21 169.263 199.866 169.263 199.434C169.263 199.082 169.119 198.818 168.831 198.642C168.543 198.45 168.167 198.306 167.703 198.21C167.239 198.114 166.719 198.026 166.143 197.946C165.583 197.866 165.015 197.762 164.439 197.634C163.879 197.49 163.367 197.29 162.903 197.034C162.439 196.762 162.063 196.402 161.775 195.954C161.487 195.506 161.343 194.914 161.343 194.178C161.343 193.362 161.575 192.658 162.039 192.066C162.503 191.458 163.151 190.994 163.983 190.674C164.831 190.338 165.831 190.17 166.983 190.17C167.847 190.17 168.719 190.266 169.599 190.458C170.479 190.65 171.207 190.922 171.783 191.274L170.631 193.554C170.023 193.186 169.407 192.938 168.783 192.81C168.175 192.666 167.567 192.594 166.959 192.594C166.047 192.594 165.367 192.73 164.919 193.002C164.487 193.274 164.271 193.618 164.271 194.034C164.271 194.418 164.415 194.706 164.703 194.898C164.991 195.09 165.367 195.242 165.831 195.354C166.295 195.466 166.807 195.562 167.367 195.642C167.943 195.706 168.511 195.81 169.071 195.954C169.631 196.098 170.143 196.298 170.607 196.554C171.087 196.794 171.471 197.138 171.759 197.586C172.047 198.034 172.191 198.618 172.191 199.338C172.191 200.138 171.951 200.834 171.471 201.426C171.007 202.018 170.343 202.482 169.479 202.818C168.615 203.138 167.583 203.298 166.383 203.298Z" fill="white"/>
<path d="M25.2783 140.97C25.1221 139.394 24.4515 138.17 23.2666 137.298C22.0817 136.426 20.4736 135.989 18.4424 135.989C17.0622 135.989 15.8968 136.185 14.9463 136.575C13.9958 136.953 13.2666 137.48 12.7588 138.157C12.264 138.834 12.0166 139.603 12.0166 140.462C11.9906 141.178 12.1403 141.803 12.4658 142.337C12.8044 142.871 13.2666 143.333 13.8525 143.724C14.4385 144.101 15.1156 144.433 15.8838 144.72C16.652 144.993 17.4723 145.228 18.3447 145.423L21.9385 146.282C23.6833 146.673 25.2848 147.194 26.7432 147.845C28.2015 148.496 29.4645 149.297 30.5322 150.247C31.5999 151.198 32.4268 152.317 33.0127 153.607C33.6117 154.896 33.9176 156.373 33.9307 158.04C33.9176 160.488 33.2926 162.61 32.0557 164.407C30.8317 166.191 29.0609 167.578 26.7432 168.567C24.4385 169.544 21.6585 170.032 18.4033 170.032C15.1742 170.032 12.3617 169.537 9.96582 168.548C7.58301 167.558 5.72103 166.093 4.37988 164.153C3.05176 162.2 2.35514 159.785 2.29004 156.907H10.4736C10.5648 158.248 10.9489 159.368 11.626 160.267C12.3161 161.152 13.234 161.823 14.3799 162.278C15.5387 162.721 16.8473 162.942 18.3057 162.942C19.738 162.942 20.9814 162.734 22.0361 162.317C23.1038 161.901 23.9307 161.321 24.5166 160.579C25.1025 159.837 25.3955 158.984 25.3955 158.021C25.3955 157.122 25.1286 156.367 24.5947 155.755C24.0739 155.143 23.3057 154.622 22.29 154.192C21.2874 153.763 20.057 153.372 18.5986 153.021L14.2432 151.927C10.8708 151.107 8.20801 149.824 6.25488 148.079C4.30176 146.334 3.33171 143.984 3.34473 141.028C3.33171 138.607 3.97624 136.491 5.27832 134.681C6.59342 132.871 8.39681 131.458 10.6885 130.442C12.9801 129.427 15.5843 128.919 18.501 128.919C21.4697 128.919 24.0609 129.427 26.2744 130.442C28.501 131.458 30.2327 132.871 31.4697 134.681C32.7067 136.491 33.3447 138.587 33.3838 140.97H25.2783ZM46.6426 170.032C44.7285 170.032 43.0228 169.7 41.5254 169.036C40.028 168.359 38.8431 167.363 37.9707 166.048C37.1113 164.72 36.6816 163.066 36.6816 161.087C36.6816 159.42 36.9876 158.021 37.5996 156.888C38.2116 155.755 39.0449 154.843 40.0996 154.153C41.1543 153.463 42.3522 152.942 43.6934 152.591C45.0475 152.239 46.4668 151.992 47.9512 151.849C49.696 151.666 51.1022 151.497 52.1699 151.341C53.2376 151.172 54.0124 150.924 54.4941 150.599C54.9759 150.273 55.2168 149.791 55.2168 149.153V149.036C55.2168 147.799 54.8262 146.842 54.0449 146.165C53.2767 145.488 52.1829 145.149 50.7637 145.149C49.2663 145.149 48.0749 145.482 47.1895 146.146C46.304 146.797 45.7181 147.617 45.4316 148.607L37.7363 147.982C38.127 146.159 38.8952 144.583 40.041 143.255C41.1868 141.914 42.6647 140.885 44.4746 140.169C46.2975 139.44 48.4069 139.075 50.8027 139.075C52.4694 139.075 54.0645 139.271 55.5879 139.661C57.1243 140.052 58.485 140.657 59.6699 141.478C60.8678 142.298 61.8118 143.353 62.502 144.642C63.1921 145.918 63.5371 147.448 63.5371 149.232V169.466H55.6465V165.306H55.4121C54.9303 166.243 54.2858 167.07 53.4785 167.786C52.6712 168.489 51.7012 169.043 50.5684 169.446C49.4355 169.837 48.127 170.032 46.6426 170.032ZM49.0254 164.29C50.2493 164.29 51.3301 164.049 52.2676 163.567C53.2051 163.073 53.9408 162.409 54.4746 161.575C55.0085 160.742 55.2754 159.798 55.2754 158.743V155.56C55.015 155.729 54.6569 155.885 54.2012 156.028C53.7585 156.159 53.2572 156.282 52.6973 156.399C52.1374 156.504 51.5775 156.601 51.0176 156.692C50.4577 156.771 49.9499 156.842 49.4941 156.907C48.5176 157.051 47.6647 157.278 46.9355 157.591C46.2064 157.903 45.64 158.327 45.2363 158.86C44.8327 159.381 44.6309 160.032 44.6309 160.814C44.6309 161.946 45.041 162.812 45.8613 163.411C46.6947 163.997 47.7493 164.29 49.0254 164.29ZM72.6797 180.716C71.625 180.716 70.6354 180.631 69.7109 180.462C68.7995 180.306 68.0443 180.104 67.4453 179.857L69.3203 173.646C70.2969 173.945 71.1758 174.108 71.957 174.134C72.7513 174.16 73.4349 173.978 74.0078 173.587C74.5938 173.196 75.069 172.532 75.4336 171.595L75.9219 170.325L65.1602 139.466H73.9102L80.1211 161.497H80.4336L86.7031 139.466H95.5117L83.8516 172.708C83.2917 174.323 82.5299 175.729 81.5664 176.927C80.6159 178.138 79.4115 179.069 77.9531 179.72C76.4948 180.384 74.737 180.716 72.6797 180.716ZM98.5508 129.466H108.98L119.996 156.341H120.465L131.48 129.466H141.91V169.466H133.707V143.431H133.375L123.023 169.271H117.438L107.086 143.333H106.754V169.466H98.5508V129.466ZM161.019 170.052C157.933 170.052 155.276 169.427 153.05 168.177C150.836 166.914 149.131 165.13 147.933 162.825C146.735 160.508 146.136 157.767 146.136 154.603C146.136 151.517 146.735 148.808 147.933 146.478C149.131 144.147 150.817 142.33 152.991 141.028C155.179 139.726 157.744 139.075 160.687 139.075C162.666 139.075 164.508 139.394 166.214 140.032C167.933 140.657 169.43 141.601 170.706 142.864C171.995 144.127 172.998 145.716 173.714 147.63C174.43 149.531 174.788 151.758 174.788 154.31V156.595H149.456V151.439H166.956C166.956 150.241 166.696 149.179 166.175 148.255C165.654 147.33 164.931 146.608 164.007 146.087C163.095 145.553 162.034 145.286 160.823 145.286C159.56 145.286 158.44 145.579 157.464 146.165C156.5 146.738 155.745 147.513 155.198 148.489C154.651 149.453 154.371 150.527 154.358 151.712V156.614C154.358 158.099 154.632 159.381 155.179 160.462C155.739 161.543 156.526 162.376 157.542 162.962C158.558 163.548 159.762 163.841 161.155 163.841C162.08 163.841 162.926 163.711 163.694 163.45C164.463 163.19 165.12 162.799 165.667 162.278C166.214 161.758 166.631 161.12 166.917 160.364L174.612 160.872C174.222 162.721 173.421 164.336 172.21 165.716C171.012 167.083 169.463 168.151 167.562 168.919C165.674 169.674 163.493 170.052 161.019 170.052Z" fill="white"/>
<path opacity="0.7" d="M117.036 24.3333C92.2034 24.3333 72.0725 44.4643 72.0725 69.2971C72.0725 94.1298 92.2034 114.261 117.036 114.261C123.447 114.258 129.784 112.884 135.621 110.231C137.677 109.298 141.042 108.807 143.236 109.345L153.485 111.855C157.967 112.952 160.692 110.228 159.594 105.746L157.083 95.4945C156.546 93.301 157.036 89.9362 157.971 87.8806C160.623 82.0442 161.997 75.708 162 69.2971C162 44.4643 141.868 24.3333 117.036 24.3333ZM99.2312 63.3596C100.011 63.3595 100.783 63.513 101.504 63.8114C102.224 64.1097 102.879 64.547 103.43 65.0984C103.981 65.6498 104.419 66.3043 104.717 67.0247C105.016 67.7452 105.169 68.5173 105.169 69.2971C105.169 70.0769 105.016 70.849 104.717 71.5694C104.419 72.2898 103.981 72.9444 103.43 73.4958C102.879 74.0471 102.224 74.4845 101.504 74.7828C100.783 75.0811 100.011 75.2347 99.2312 75.2346C97.6565 75.2346 96.1463 74.609 95.0328 73.4955C93.9193 72.382 93.2937 70.8718 93.2937 69.2971C93.2937 67.7224 93.9193 66.2122 95.0328 65.0987C96.1463 63.9852 97.6565 63.3596 99.2312 63.3596ZM117.037 63.3596C118.611 63.3596 120.122 63.9852 121.235 65.0987C122.349 66.2122 122.974 67.7224 122.974 69.2971C122.974 70.0769 122.82 70.849 122.522 71.5694C122.224 72.2898 121.786 72.9444 121.235 73.4958C120.683 74.0471 120.029 74.4845 119.308 74.7828C118.588 75.0811 117.816 75.2347 117.036 75.2346C115.461 75.2344 113.951 74.6087 112.838 73.4952C111.725 72.3818 111.099 70.8717 111.099 69.2971C111.099 67.7225 111.725 66.2124 112.838 65.0989C113.951 63.9855 115.462 63.3598 117.037 63.3596ZM134.842 63.3596C136.417 63.3596 137.927 63.9852 139.041 65.0987C140.154 66.2122 140.78 67.7224 140.78 69.2971C140.78 70.8718 140.154 72.382 139.041 73.4955C137.927 74.609 136.417 75.2346 134.842 75.2346C134.062 75.2347 133.29 75.0811 132.57 74.7828C131.849 74.4845 131.195 74.0471 130.643 73.4958C130.092 72.9444 129.654 72.2898 129.356 71.5694C129.058 70.849 128.904 70.0769 128.904 69.2971C128.904 68.5173 129.058 67.7452 129.356 67.0247C129.654 66.3043 130.092 65.6498 130.643 65.0984C131.195 64.547 131.849 64.1097 132.57 63.8114C133.29 63.513 134.062 63.3595 134.842 63.3596Z" fill="white"/>
<g opacity="0.07" filter="url(#filter0_f_302_100)">
<circle cx="77.8914" cy="67.1812" r="47.0797" fill="#4B036D"/>
</g>
<path d="M63.6091 0C89.9024 0 111.217 21.3152 111.217 47.6087C111.217 73.9022 89.9024 95.2174 63.6091 95.2174C56.8205 95.2147 50.1111 93.76 43.931 90.9509C41.7537 89.9622 38.191 89.4433 35.8677 90.0122L25.0154 92.6703C20.2705 93.832 17.3854 90.9469 18.5478 86.2019L21.206 75.3471C21.7749 73.0246 21.2559 69.4619 20.2665 67.2854C17.4578 61.1057 16.0031 54.3968 16 47.6087C16 21.3152 37.3158 0 63.6091 0Z" fill="white"/>
<path d="M56.7167 58.3162V57.422C56.7342 54.3538 57.006 51.908 57.5319 50.0846C58.0755 48.2612 58.8644 46.7884 59.8989 45.6663C60.9333 44.5443 62.1781 43.5274 63.6333 42.6157C64.7203 41.9144 65.6934 41.1867 66.5525 40.4328C67.4116 39.6789 68.0954 38.8461 68.6038 37.9344C69.1123 37.0052 69.3665 35.9708 69.3665 34.8312C69.3665 33.6214 69.0772 32.5607 68.4986 31.649C67.92 30.7373 67.1398 30.036 66.158 29.5451C65.1937 29.0541 64.1242 28.8087 62.9495 28.8087C61.8099 28.8087 60.7317 29.0629 59.7148 29.5714C58.6979 30.0623 57.8651 30.7986 57.2164 31.7805C56.5676 32.7448 56.217 33.9458 56.1644 35.3834H45.4344C45.5221 31.8769 46.3636 28.984 47.9591 26.7048C49.5546 24.408 51.6673 22.6986 54.2972 21.5765C56.9271 20.4368 59.8287 19.867 63.0021 19.867C66.4911 19.867 69.5769 20.4456 72.2594 21.6028C74.9419 22.7424 77.0458 24.3992 78.5711 26.5733C80.0965 28.7473 80.8592 31.3685 80.8592 34.4367C80.8592 36.488 80.5173 38.3114 79.8335 39.9069C79.1673 41.4848 78.2293 42.8874 77.0195 44.1147C75.8097 45.3245 74.3808 46.4202 72.7328 47.4021C71.3477 48.2261 70.2081 49.0852 69.3139 49.9794C68.4373 50.8735 67.7798 51.908 67.3415 53.0827C66.9207 54.2574 66.7015 55.7038 66.684 57.422V58.3162H56.7167ZM61.9239 75.1475C60.1706 75.1475 58.6716 74.5339 57.4267 73.3066C56.1995 72.0618 55.5946 70.5715 55.6121 68.8358C55.5946 67.1176 56.1995 65.6448 57.4267 64.4175C58.6716 63.1902 60.1706 62.5766 61.9239 62.5766C63.5895 62.5766 65.0535 63.1902 66.3158 64.4175C67.5782 65.6448 68.2181 67.1176 68.2356 68.8358C68.2181 69.9929 67.9113 71.0536 67.3152 72.0179C66.7366 72.9647 65.9739 73.7274 65.0272 74.306C64.0804 74.867 63.046 75.1475 61.9239 75.1475Z" fill="#C420DE"/>
<defs>
<filter id="filter0_f_302_100" x="20.2319" y="9.52173" width="115.319" height="115.319" filterUnits="userSpaceOnUse" color-interpolation-filters="sRGB">
<feFlood flood-opacity="0" result="BackgroundImageFix"/>
<feBlend mode="normal" in="SourceGraphic" in2="BackgroundImageFix" result="shape"/>
<feGaussianBlur stdDeviation="5.28986" result="effect1_foregroundBlur_302_100"/>
</filter>
</defs>
</svg>
