<svg width="342" height="125" viewBox="0 0 342 125" fill="none" xmlns="http://www.w3.org/2000/svg">
<path opacity="0.7" d="M169.073 107.665L176.633 90.8645H179.705L187.289 107.665H184.025L177.521 92.5205H178.769L172.289 107.665H169.073ZM172.553 103.777L173.393 101.329H182.465L183.305 103.777H172.553ZM198.81 94.7046C199.834 94.7046 200.746 94.9046 201.546 95.3045C202.362 95.7046 203.002 96.3206 203.466 97.1526C203.93 97.9686 204.162 99.0246 204.162 100.321V107.665H201.162V100.705C201.162 99.5686 200.89 98.7206 200.346 98.1606C199.818 97.6006 199.074 97.3206 198.114 97.3206C197.41 97.3206 196.786 97.4646 196.242 97.7526C195.698 98.0406 195.274 98.4726 194.97 99.0486C194.682 99.6086 194.538 100.321 194.538 101.185V107.665H191.538V94.8485H194.394V98.3046L193.89 97.2486C194.338 96.4326 194.986 95.8086 195.834 95.3766C196.698 94.9286 197.69 94.7046 198.81 94.7046ZM216.151 107.833C214.839 107.833 213.671 107.553 212.647 106.993C211.623 106.417 210.815 105.633 210.223 104.641C209.631 103.649 209.335 102.521 209.335 101.257C209.335 99.9766 209.631 98.8486 210.223 97.8726C210.815 96.8806 211.623 96.1046 212.647 95.5446C213.671 94.9846 214.839 94.7046 216.151 94.7046C217.479 94.7046 218.655 94.9846 219.679 95.5446C220.719 96.1046 221.527 96.8726 222.103 97.8486C222.695 98.8246 222.991 99.9606 222.991 101.257C222.991 102.521 222.695 103.649 222.103 104.641C221.527 105.633 220.719 106.417 219.679 106.993C218.655 107.553 217.479 107.833 216.151 107.833ZM216.151 105.265C216.887 105.265 217.543 105.105 218.119 104.785C218.695 104.465 219.143 104.001 219.463 103.393C219.799 102.785 219.967 102.073 219.967 101.257C219.967 100.425 219.799 99.7126 219.463 99.1206C219.143 98.5126 218.695 98.0486 218.119 97.7285C217.543 97.4086 216.895 97.2486 216.175 97.2486C215.439 97.2486 214.783 97.4086 214.207 97.7285C213.647 98.0486 213.199 98.5126 212.863 99.1206C212.527 99.7126 212.359 100.425 212.359 101.257C212.359 102.073 212.527 102.785 212.863 103.393C213.199 104.001 213.647 104.465 214.207 104.785C214.783 105.105 215.431 105.265 216.151 105.265ZM235.531 94.7046C236.555 94.7046 237.467 94.9046 238.267 95.3045C239.083 95.7046 239.723 96.3206 240.187 97.1526C240.651 97.9686 240.883 99.0246 240.883 100.321V107.665H237.883V100.705C237.883 99.5686 237.611 98.7206 237.067 98.1606C236.539 97.6006 235.795 97.3206 234.835 97.3206C234.131 97.3206 233.507 97.4646 232.963 97.7526C232.419 98.0406 231.995 98.4726 231.691 99.0486C231.403 99.6086 231.259 100.321 231.259 101.185V107.665H228.259V94.8485H231.115V98.3046L230.611 97.2486C231.059 96.4326 231.707 95.8086 232.555 95.3766C233.419 94.9286 234.411 94.7046 235.531 94.7046ZM247.911 112.489C247.287 112.489 246.663 112.385 246.039 112.177C245.415 111.969 244.895 111.681 244.479 111.313L245.679 109.105C245.983 109.377 246.327 109.593 246.711 109.753C247.095 109.913 247.487 109.993 247.887 109.993C248.431 109.993 248.871 109.857 249.207 109.585C249.543 109.313 249.855 108.857 250.143 108.217L250.887 106.537L251.127 106.177L255.975 94.8485H258.855L252.855 108.697C252.455 109.657 252.007 110.417 251.511 110.977C251.031 111.537 250.487 111.929 249.879 112.153C249.287 112.377 248.631 112.489 247.911 112.489ZM250.551 108.121L244.767 94.8485H247.887L252.591 105.913L250.551 108.121ZM279.306 94.7046C280.33 94.7046 281.234 94.9046 282.018 95.3045C282.818 95.7046 283.442 96.3206 283.89 97.1526C284.338 97.9686 284.562 99.0246 284.562 100.321V107.665H281.562V100.705C281.562 99.5686 281.314 98.7206 280.818 98.1606C280.322 97.6006 279.61 97.3206 278.682 97.3206C278.026 97.3206 277.442 97.4646 276.93 97.7526C276.434 98.0406 276.042 98.4646 275.754 99.0246C275.482 99.5846 275.346 100.297 275.346 101.161V107.665H272.346V100.705C272.346 99.5686 272.098 98.7206 271.602 98.1606C271.106 97.6006 270.394 97.3206 269.466 97.3206C268.81 97.3206 268.226 97.4646 267.714 97.7526C267.218 98.0406 266.826 98.4646 266.538 99.0246C266.266 99.5846 266.13 100.297 266.13 101.161V107.665H263.13V94.8485H265.986V98.2566L265.482 97.2486C265.914 96.4166 266.538 95.7846 267.354 95.3526C268.186 94.9206 269.13 94.7046 270.186 94.7046C271.386 94.7046 272.426 95.0006 273.306 95.5926C274.202 96.1846 274.794 97.0806 275.082 98.2806L273.906 97.8726C274.322 96.9126 275.01 96.1446 275.97 95.5686C276.93 94.9926 278.042 94.7046 279.306 94.7046ZM296.579 107.833C295.267 107.833 294.099 107.553 293.075 106.993C292.051 106.417 291.243 105.633 290.651 104.641C290.059 103.649 289.763 102.521 289.763 101.257C289.763 99.9766 290.059 98.8486 290.651 97.8726C291.243 96.8806 292.051 96.1046 293.075 95.5446C294.099 94.9846 295.267 94.7046 296.579 94.7046C297.907 94.7046 299.083 94.9846 300.107 95.5446C301.147 96.1046 301.955 96.8726 302.531 97.8486C303.123 98.8246 303.419 99.9606 303.419 101.257C303.419 102.521 303.123 103.649 302.531 104.641C301.955 105.633 301.147 106.417 300.107 106.993C299.083 107.553 297.907 107.833 296.579 107.833ZM296.579 105.265C297.315 105.265 297.971 105.105 298.547 104.785C299.123 104.465 299.571 104.001 299.891 103.393C300.227 102.785 300.395 102.073 300.395 101.257C300.395 100.425 300.227 99.7126 299.891 99.1206C299.571 98.5126 299.123 98.0486 298.547 97.7285C297.971 97.4086 297.323 97.2486 296.603 97.2486C295.867 97.2486 295.211 97.4086 294.635 97.7285C294.075 98.0486 293.627 98.5126 293.291 99.1206C292.955 99.7126 292.787 100.425 292.787 101.257C292.787 102.073 292.955 102.785 293.291 103.393C293.627 104.001 294.075 104.465 294.635 104.785C295.211 105.105 295.859 105.265 296.579 105.265ZM314.112 107.833C313.024 107.833 312.064 107.633 311.232 107.233C310.4 106.817 309.752 106.193 309.288 105.361C308.824 104.513 308.592 103.449 308.592 102.169V94.8485H311.592V101.761C311.592 102.913 311.848 103.777 312.36 104.353C312.888 104.913 313.632 105.193 314.592 105.193C315.296 105.193 315.904 105.049 316.416 104.761C316.944 104.473 317.352 104.041 317.64 103.465C317.944 102.889 318.096 102.177 318.096 101.329V94.8485H321.096V107.665H318.24V104.209L318.744 105.265C318.312 106.097 317.68 106.737 316.848 107.185C316.016 107.617 315.104 107.833 314.112 107.833ZM331.383 107.833C330.311 107.833 329.279 107.697 328.287 107.425C327.311 107.137 326.535 106.793 325.959 106.393L327.111 104.113C327.687 104.481 328.375 104.785 329.175 105.025C329.975 105.265 330.775 105.385 331.575 105.385C332.519 105.385 333.199 105.257 333.615 105.001C334.047 104.745 334.263 104.401 334.263 103.969C334.263 103.617 334.119 103.353 333.831 103.177C333.543 102.985 333.167 102.841 332.703 102.745C332.239 102.649 331.719 102.561 331.143 102.481C330.583 102.401 330.015 102.297 329.439 102.169C328.879 102.025 328.367 101.825 327.903 101.569C327.439 101.297 327.063 100.937 326.775 100.489C326.487 100.041 326.343 99.4486 326.343 98.7126C326.343 97.8966 326.575 97.1926 327.039 96.6006C327.503 95.9926 328.151 95.5286 328.983 95.2085C329.831 94.8726 330.831 94.7046 331.983 94.7046C332.847 94.7046 333.719 94.8006 334.599 94.9926C335.479 95.1846 336.207 95.4566 336.783 95.8086L335.631 98.0886C335.023 97.7206 334.407 97.4726 333.783 97.3446C333.175 97.2006 332.567 97.1286 331.959 97.1286C331.047 97.1286 330.367 97.2646 329.919 97.5366C329.487 97.8086 329.271 98.1526 329.271 98.5686C329.271 98.9526 329.415 99.2406 329.703 99.4326C329.991 99.6246 330.367 99.7766 330.831 99.8886C331.295 100.001 331.807 100.097 332.367 100.177C332.943 100.241 333.511 100.345 334.071 100.489C334.631 100.633 335.143 100.833 335.607 101.089C336.087 101.329 336.471 101.673 336.759 102.121C337.047 102.569 337.191 103.153 337.191 103.873C337.191 104.673 336.951 105.369 336.471 105.961C336.007 106.553 335.343 107.017 334.479 107.353C333.615 107.673 332.583 107.833 331.383 107.833Z" fill="white"/>
<path d="M190.278 45.5039C190.122 43.9284 189.451 42.7044 188.267 41.832C187.082 40.9596 185.474 40.5234 183.442 40.5234C182.062 40.5234 180.897 40.7187 179.946 41.1094C178.996 41.487 178.267 42.0143 177.759 42.6914C177.264 43.3685 177.017 44.1367 177.017 44.9961C176.991 45.7122 177.14 46.3372 177.466 46.8711C177.804 47.4049 178.267 47.8672 178.853 48.2578C179.438 48.6354 180.116 48.9674 180.884 49.2539C181.652 49.5273 182.472 49.7617 183.345 49.957L186.938 50.8164C188.683 51.207 190.285 51.7279 191.743 52.3789C193.201 53.0299 194.465 53.8307 195.532 54.7812C196.6 55.7318 197.427 56.8516 198.013 58.1406C198.612 59.4297 198.918 60.9076 198.931 62.5742C198.918 65.0221 198.293 67.1445 197.056 68.9414C195.832 70.7253 194.061 72.112 191.743 73.1016C189.438 74.0781 186.659 74.5664 183.403 74.5664C180.174 74.5664 177.362 74.0716 174.966 73.082C172.583 72.0924 170.721 70.6276 169.38 68.6875C168.052 66.7344 167.355 64.319 167.29 61.4414H175.474C175.565 62.7826 175.949 63.9023 176.626 64.8008C177.316 65.6862 178.234 66.3568 179.38 66.8125C180.539 67.2552 181.847 67.4766 183.306 67.4766C184.738 67.4766 185.981 67.2682 187.036 66.8516C188.104 66.4349 188.931 65.8555 189.517 65.1133C190.103 64.3711 190.396 63.5182 190.396 62.5547C190.396 61.6562 190.129 60.901 189.595 60.2891C189.074 59.6771 188.306 59.1562 187.29 58.7266C186.287 58.2969 185.057 57.9062 183.599 57.5547L179.243 56.4609C175.871 55.6406 173.208 54.3581 171.255 52.6133C169.302 50.8685 168.332 48.5182 168.345 45.5625C168.332 43.1406 168.976 41.0247 170.278 39.2148C171.593 37.4049 173.397 35.9922 175.688 34.9766C177.98 33.9609 180.584 33.4531 183.501 33.4531C186.47 33.4531 189.061 33.9609 191.274 34.9766C193.501 35.9922 195.233 37.4049 196.47 39.2148C197.707 41.0247 198.345 43.1211 198.384 45.5039H190.278ZM211.643 74.5664C209.729 74.5664 208.023 74.2344 206.525 73.5703C205.028 72.8932 203.843 71.8971 202.971 70.582C202.111 69.2539 201.682 67.6003 201.682 65.6211C201.682 63.9544 201.988 62.5547 202.6 61.4219C203.212 60.2891 204.045 59.3776 205.1 58.6875C206.154 57.9974 207.352 57.4766 208.693 57.125C210.048 56.7734 211.467 56.526 212.951 56.3828C214.696 56.2005 216.102 56.0312 217.17 55.875C218.238 55.7057 219.012 55.4583 219.494 55.1328C219.976 54.8073 220.217 54.3255 220.217 53.6875V53.5703C220.217 52.3333 219.826 51.3763 219.045 50.6992C218.277 50.0221 217.183 49.6836 215.764 49.6836C214.266 49.6836 213.075 50.0156 212.189 50.6797C211.304 51.3307 210.718 52.151 210.432 53.1406L202.736 52.5156C203.127 50.6927 203.895 49.1172 205.041 47.7891C206.187 46.4479 207.665 45.4193 209.475 44.7031C211.298 43.974 213.407 43.6094 215.803 43.6094C217.469 43.6094 219.064 43.8047 220.588 44.1953C222.124 44.5859 223.485 45.1914 224.67 46.0117C225.868 46.832 226.812 47.8867 227.502 49.1758C228.192 50.4518 228.537 51.9818 228.537 53.7656V74H220.646V69.8398H220.412C219.93 70.7773 219.286 71.6042 218.479 72.3203C217.671 73.0234 216.701 73.5768 215.568 73.9805C214.436 74.3711 213.127 74.5664 211.643 74.5664ZM214.025 68.8242C215.249 68.8242 216.33 68.5833 217.268 68.1016C218.205 67.6068 218.941 66.9427 219.475 66.1094C220.008 65.276 220.275 64.332 220.275 63.2773V60.0938C220.015 60.263 219.657 60.4193 219.201 60.5625C218.758 60.6927 218.257 60.8164 217.697 60.9336C217.137 61.0378 216.577 61.1354 216.018 61.2266C215.458 61.3047 214.95 61.3763 214.494 61.4414C213.518 61.5846 212.665 61.8125 211.936 62.125C211.206 62.4375 210.64 62.8607 210.236 63.3945C209.833 63.9154 209.631 64.5664 209.631 65.3477C209.631 66.4805 210.041 67.3464 210.861 67.9453C211.695 68.5312 212.749 68.8242 214.025 68.8242ZM237.68 85.25C236.625 85.25 235.635 85.1654 234.711 84.9961C233.799 84.8398 233.044 84.638 232.445 84.3906L234.32 78.1797C235.297 78.4792 236.176 78.6419 236.957 78.668C237.751 78.694 238.435 78.5117 239.008 78.1211C239.594 77.7305 240.069 77.0664 240.434 76.1289L240.922 74.8594L230.16 44H238.91L245.121 66.0312H245.434L251.703 44H260.512L248.852 77.2422C248.292 78.8568 247.53 80.263 246.566 81.4609C245.616 82.6719 244.411 83.6029 242.953 84.2539C241.495 84.918 239.737 85.25 237.68 85.25ZM263.551 34H273.98L284.996 60.875H285.465L296.48 34H306.91V74H298.707V47.9648H298.375L288.023 73.8047H282.438L272.086 47.8672H271.754V74H263.551V34ZM326.019 74.5859C322.933 74.5859 320.276 73.9609 318.05 72.7109C315.836 71.4479 314.131 69.6641 312.933 67.3594C311.735 65.0417 311.136 62.3008 311.136 59.1367C311.136 56.0508 311.735 53.3424 312.933 51.0117C314.131 48.681 315.817 46.8646 317.991 45.5625C320.179 44.2604 322.744 43.6094 325.687 43.6094C327.666 43.6094 329.508 43.9284 331.214 44.5664C332.933 45.1914 334.43 46.1354 335.706 47.3984C336.995 48.6615 337.998 50.25 338.714 52.1641C339.43 54.0651 339.788 56.2917 339.788 58.8437V61.1289H314.456V55.9727H331.956C331.956 54.7747 331.696 53.7135 331.175 52.7891C330.654 51.8646 329.931 51.1419 329.007 50.6211C328.095 50.0872 327.034 49.8203 325.823 49.8203C324.56 49.8203 323.44 50.1133 322.464 50.6992C321.5 51.2721 320.745 52.0469 320.198 53.0234C319.651 53.987 319.371 55.0612 319.358 56.2461V61.1484C319.358 62.6328 319.632 63.9154 320.179 64.9961C320.739 66.0768 321.526 66.9102 322.542 67.4961C323.558 68.082 324.762 68.375 326.155 68.375C327.08 68.375 327.926 68.2448 328.694 67.9844C329.463 67.724 330.12 67.3333 330.667 66.8125C331.214 66.2917 331.631 65.6536 331.917 64.8984L339.612 65.4062C339.222 67.2552 338.421 68.8698 337.21 70.25C336.012 71.6172 334.463 72.6849 332.562 73.4531C330.674 74.2083 328.493 74.5859 326.019 74.5859Z" fill="white"/>
<path opacity="0.7" d="M101.036 24.3333C76.2034 24.3333 56.0725 44.4643 56.0725 69.2971C56.0725 94.1298 76.2034 114.261 101.036 114.261C107.447 114.258 113.784 112.884 119.621 110.231C121.677 109.298 125.042 108.807 127.236 109.345L137.485 111.855C141.967 112.952 144.692 110.228 143.594 105.746L141.083 95.4945C140.546 93.301 141.036 89.9362 141.971 87.8806C144.623 82.0442 145.997 75.708 146 69.2971C146 44.4643 125.868 24.3333 101.036 24.3333ZM83.2312 63.3596C84.011 63.3595 84.7831 63.513 85.5035 63.8114C86.224 64.1097 86.8786 64.547 87.43 65.0984C87.9814 65.6498 88.4189 66.3043 88.7173 67.0247C89.0157 67.7452 89.1693 68.5173 89.1693 69.2971C89.1693 70.0769 89.0157 70.849 88.7173 71.5694C88.4189 72.2898 87.9814 72.9444 87.43 73.4958C86.8786 74.0471 86.224 74.4845 85.5035 74.7828C84.7831 75.0811 84.011 75.2347 83.2312 75.2346C81.6565 75.2346 80.1463 74.609 79.0328 73.4955C77.9193 72.382 77.2937 70.8718 77.2937 69.2971C77.2937 67.7224 77.9193 66.2122 79.0328 65.0987C80.1463 63.9852 81.6565 63.3596 83.2312 63.3596ZM101.037 63.3596C102.611 63.3596 104.122 63.9852 105.235 65.0987C106.349 66.2122 106.974 67.7224 106.974 69.2971C106.974 70.0769 106.82 70.849 106.522 71.5694C106.224 72.2898 105.786 72.9444 105.235 73.4958C104.683 74.0471 104.029 74.4845 103.308 74.7828C102.588 75.0811 101.816 75.2347 101.036 75.2346C99.4613 75.2344 97.9513 74.6087 96.838 73.4952C95.7247 72.3818 95.0992 70.8717 95.0992 69.2971C95.0992 67.7225 95.7247 66.2124 96.838 65.0989C97.9513 63.9855 99.4621 63.3598 101.037 63.3596ZM118.842 63.3596C120.417 63.3596 121.927 63.9852 123.041 65.0987C124.154 66.2122 124.78 67.7224 124.78 69.2971C124.78 70.8718 124.154 72.382 123.041 73.4955C121.927 74.609 120.417 75.2346 118.842 75.2346C118.062 75.2347 117.29 75.0811 116.57 74.7828C115.849 74.4845 115.195 74.0471 114.643 73.4958C114.092 72.9444 113.654 72.2898 113.356 71.5694C113.058 70.849 112.904 70.0769 112.904 69.2971C112.904 68.5173 113.058 67.7452 113.356 67.0247C113.654 66.3043 114.092 65.6498 114.643 65.0984C115.195 64.547 115.849 64.1097 116.57 63.8114C117.29 63.513 118.062 63.3595 118.842 63.3596Z" fill="white"/>
<g opacity="0.07" filter="url(#filter0_f_72_25)">
<circle cx="61.8914" cy="67.1812" r="47.0797" fill="#4B036D"/>
</g>
<path d="M47.6091 0C73.9024 0 95.2174 21.3152 95.2174 47.6087C95.2174 73.9022 73.9024 95.2174 47.6091 95.2174C40.8205 95.2147 34.1111 93.76 27.931 90.9509C25.7537 89.9622 22.191 89.4433 19.8677 90.0122L9.01544 92.6703C4.27048 93.832 1.38541 90.9469 2.54785 86.2019L5.20596 75.3471C5.77488 73.0246 5.25593 69.4619 4.26647 67.2854C1.45778 61.1057 0.00313209 54.3968 1.71661e-05 47.6087C1.71661e-05 21.3152 21.3158 0 47.6091 0Z" fill="white"/>
<path d="M40.7167 58.3162V57.422C40.7342 54.3538 41.006 51.908 41.5319 50.0846C42.0755 48.2612 42.8644 46.7884 43.8989 45.6663C44.9333 44.5443 46.1781 43.5274 47.6333 42.6157C48.7203 41.9144 49.6934 41.1867 50.5525 40.4328C51.4116 39.6789 52.0954 38.8461 52.6038 37.9344C53.1123 37.0052 53.3665 35.9708 53.3665 34.8312C53.3665 33.6214 53.0772 32.5607 52.4986 31.649C51.92 30.7373 51.1398 30.036 50.158 29.5451C49.1937 29.0541 48.1242 28.8087 46.9495 28.8087C45.8099 28.8087 44.7317 29.0629 43.7148 29.5714C42.6979 30.0623 41.8651 30.7986 41.2164 31.7805C40.5676 32.7448 40.217 33.9458 40.1644 35.3834H29.4344C29.5221 31.8769 30.3636 28.984 31.9591 26.7048C33.5546 24.408 35.6673 22.6986 38.2972 21.5765C40.9271 20.4368 43.8287 19.867 47.0021 19.867C50.4911 19.867 53.5769 20.4456 56.2594 21.6028C58.9419 22.7424 61.0458 24.3992 62.5711 26.5733C64.0965 28.7473 64.8592 31.3685 64.8592 34.4367C64.8592 36.488 64.5173 38.3114 63.8335 39.9069C63.1673 41.4848 62.2293 42.8874 61.0195 44.1147C59.8097 45.3245 58.3808 46.4202 56.7328 47.4021C55.3477 48.2261 54.2081 49.0852 53.3139 49.9794C52.4373 50.8735 51.7798 51.908 51.3415 53.0827C50.9207 54.2574 50.7015 55.7038 50.684 57.422V58.3162H40.7167ZM45.9239 75.1475C44.1706 75.1475 42.6716 74.5339 41.4267 73.3066C40.1995 72.0618 39.5946 70.5715 39.6121 68.8358C39.5946 67.1176 40.1995 65.6448 41.4267 64.4175C42.6716 63.1902 44.1706 62.5766 45.9239 62.5766C47.5895 62.5766 49.0535 63.1902 50.3158 64.4175C51.5782 65.6448 52.2181 67.1176 52.2356 68.8358C52.2181 69.9929 51.9113 71.0536 51.3152 72.0179C50.7366 72.9647 49.9739 73.7274 49.0272 74.306C48.0804 74.867 47.046 75.1475 45.9239 75.1475Z" fill="#C420DE"/>
<defs>
<filter id="filter0_f_72_25" x="4.23194" y="9.52173" width="115.319" height="115.319" filterUnits="userSpaceOnUse" color-interpolation-filters="sRGB">
<feFlood flood-opacity="0" result="BackgroundImageFix"/>
<feBlend mode="normal" in="SourceGraphic" in2="BackgroundImageFix" result="shape"/>
<feGaussianBlur stdDeviation="5.28986" result="effect1_foregroundBlur_72_25"/>
</filter>
</defs>
</svg>
