<svg width="280" height="234" viewBox="0 0 280 234" fill="none" xmlns="http://www.w3.org/2000/svg">
<path d="M272.825 113.013C261.558 136.29 241.541 157.596 223.329 174.739C210.257 187.062 183.951 211.818 155.566 229.564C150.902 232.463 145.523 234 140.033 234C134.544 234 129.164 232.463 124.501 229.564C96.0612 211.818 69.8092 187.062 56.7379 174.739C38.5256 157.596 18.4538 136.29 7.24198 113.013C-11.0797 75.276 6.85914 25.709 44.2135 8.01822C79.7084 -8.79623 110.773 2.70551 139.979 25.8733C169.184 2.70551 200.249 -8.851 235.744 8.01822C273.098 25.709 291.037 75.276 272.825 113.013Z" fill="white"/>
<path d="M272.825 113.013C261.558 136.29 241.541 157.596 223.329 174.739C210.257 187.062 183.951 211.818 155.566 229.564C150.902 232.463 145.523 234 140.033 234C134.544 234 129.164 232.463 124.501 229.564C96.0612 211.818 69.8092 187.062 56.7379 174.739C38.5256 157.596 18.4538 136.29 7.24198 113.013C-11.0797 75.276 6.85914 25.709 44.2135 8.01822C79.7084 -8.79623 110.773 2.70551 139.979 25.8733C169.184 2.70551 200.249 -8.851 235.744 8.01822C273.098 25.709 291.037 75.276 272.825 113.013Z" fill="url(#paint0_linear_213_353)" fill-opacity="0.7"/>
<defs>
<linearGradient id="paint0_linear_213_353" x1="140" y1="0" x2="140" y2="234" gradientUnits="userSpaceOnUse">
<stop stop-color="#7036CE"/>
<stop offset="1" stop-color="#E62497"/>
</linearGradient>
</defs>
</svg>
