<svg width="193" height="325" viewBox="0 0 193 325" fill="none" xmlns="http://www.w3.org/2000/svg">
<g opacity="0.3">
<path d="M125.063 295.503C125.063 310.732 111.719 324.075 96.4913 324.075C81.2639 324.075 67.9194 310.731 67.9194 295.503C67.9194 280.278 81.2639 266.932 96.4913 266.932C111.719 266.932 125.063 280.278 125.063 295.503Z" fill="url(#paint0_linear_213_417)" fill-opacity="0.7"/>
<path d="M96.4936 0.00755079C43.2923 0.00755079 0 43.3006 0 96.5011C0 111.706 12.3648 124.073 27.5719 124.073C42.7767 124.073 55.1437 111.708 55.1437 96.5011C55.1437 73.7004 73.692 55.152 96.4928 55.152C119.309 55.152 137.842 73.7004 137.842 96.5011C137.842 115.114 125.344 131.523 107.404 136.411C84.7471 142.595 68.9202 162.082 68.9202 183.812V215.981C68.9202 231.186 81.285 243.565 96.4921 243.565C111.685 243.565 124.064 231.186 124.064 215.981V189.016C164.768 176.888 193 139.198 193 96.5238C192.997 43.296 149.693 0 96.4913 0L96.4936 0.00755079Z" fill="url(#paint1_linear_213_417)" fill-opacity="0.7"/>
</g>
<defs>
<linearGradient id="paint0_linear_213_417" x1="96.5" y1="0" x2="96.5" y2="243.565" gradientUnits="userSpaceOnUse">
<stop offset="0.515625" stop-color="#7036CE"/>
<stop offset="1" stop-color="#E62497"/>
</linearGradient>
<linearGradient id="paint1_linear_213_417" x1="96.5" y1="0" x2="96.5" y2="243.565" gradientUnits="userSpaceOnUse">
<stop offset="0.515625" stop-color="#7036CE"/>
<stop offset="1" stop-color="#E62497"/>
</linearGradient>
</defs>
</svg>
