<svg width="331" height="330" viewBox="0 0 331 330" fill="none" xmlns="http://www.w3.org/2000/svg">
<g opacity="0.2">
<path d="M171.193 34.4388C250.054 30.5569 317.131 91.3403 321.013 170.202C324.895 249.064 264.112 316.141 185.251 320.023C164.89 321.017 144.552 317.645 125.601 310.132C118.925 307.488 108.162 306.457 101.278 308.507L69.1216 318.081C55.0617 322.266 45.9826 314.039 48.7685 299.636L55.1383 266.687C56.5018 259.637 54.4193 249.028 51.1303 242.646C41.7939 224.526 36.4405 204.619 35.4289 184.26C31.547 105.398 92.3322 38.3207 171.193 34.4388Z" fill="white"/>
<path d="M171.193 34.4388C250.054 30.5569 317.131 91.3403 321.013 170.202C324.895 249.064 264.112 316.141 185.251 320.023C164.89 321.017 144.552 317.645 125.601 310.132C118.925 307.488 108.162 306.457 101.278 308.507L69.1216 318.081C55.0617 322.266 45.9826 314.039 48.7685 299.636L55.1383 266.687C56.5018 259.637 54.4193 249.028 51.1303 242.646C41.7939 224.526 36.4405 204.619 35.4289 184.26C31.547 105.398 92.3322 38.3207 171.193 34.4388Z" fill="white"/>
<path d="M171.193 34.4388C250.054 30.5569 317.131 91.3403 321.013 170.202C324.895 249.064 264.112 316.141 185.251 320.023C164.89 321.017 144.552 317.645 125.601 310.132C118.925 307.488 108.162 306.457 101.278 308.507L69.1216 318.081C55.0617 322.266 45.9826 314.039 48.7685 299.636L55.1383 266.687C56.5018 259.637 54.4193 249.028 51.1303 242.646C41.7939 224.526 36.4405 204.619 35.4289 184.26C31.547 105.398 92.3322 38.3207 171.193 34.4388Z" fill="url(#paint0_linear_221_1455)" fill-opacity="0.7"/>
</g>
<g opacity="0.1">
<path d="M156.87 24.9152C235.527 18.0406 304.864 76.2322 311.739 154.89C318.613 233.547 260.422 302.885 181.766 309.759C161.457 311.526 141.005 308.929 121.783 302.141C115.011 299.753 104.217 299.132 97.4158 301.441L65.6462 312.23C51.7553 316.946 42.3702 309.07 44.607 294.571L49.7207 261.404C50.8154 254.307 48.3314 243.785 44.8024 237.533C34.7844 219.78 28.6787 200.091 26.8946 179.785C20.0199 101.128 78.2133 31.7899 156.87 24.9152Z" fill="white"/>
<path d="M156.87 24.9152C235.527 18.0406 304.864 76.2322 311.739 154.89C318.613 233.547 260.422 302.885 181.766 309.759C161.457 311.526 141.005 308.929 121.783 302.141C115.011 299.753 104.217 299.132 97.4158 301.441L65.6462 312.23C51.7553 316.946 42.3702 309.07 44.607 294.571L49.7207 261.404C50.8154 254.307 48.3314 243.785 44.8024 237.533C34.7844 219.78 28.6787 200.091 26.8946 179.785C20.0199 101.128 78.2133 31.7899 156.87 24.9152Z" fill="white"/>
<path d="M156.87 24.9152C235.527 18.0406 304.864 76.2322 311.739 154.89C318.613 233.547 260.422 302.885 181.766 309.759C161.457 311.526 141.005 308.929 121.783 302.141C115.011 299.753 104.217 299.132 97.4158 301.441L65.6462 312.23C51.7553 316.946 42.3702 309.07 44.607 294.571L49.7207 261.404C50.8154 254.307 48.3314 243.785 44.8024 237.533C34.7844 219.78 28.6787 200.091 26.8946 179.785C20.0199 101.128 78.2133 31.7899 156.87 24.9152Z" fill="url(#paint1_linear_221_1455)" fill-opacity="0.7"/>
</g>
<g opacity="0.05">
<path d="M141.742 18.6713C220.022 8.35947 291.84 63.4596 302.152 141.74C312.464 220.021 257.365 291.84 179.085 302.152C158.873 304.807 138.327 303.107 118.826 297.167C111.956 295.078 101.145 294.93 94.4517 297.535L63.1848 309.705C49.5137 315.024 39.7928 307.566 41.3927 292.984L45.0493 259.624C45.8323 252.487 42.89 242.083 39.0906 235.992C28.3049 218.695 21.343 199.292 18.6716 179.083C8.35962 100.803 63.4614 28.9832 141.742 18.6713Z" fill="white"/>
<path d="M141.742 18.6713C220.022 8.35947 291.84 63.4596 302.152 141.74C312.464 220.021 257.365 291.84 179.085 302.152C158.873 304.807 138.327 303.107 118.826 297.167C111.956 295.078 101.145 294.93 94.4517 297.535L63.1848 309.705C49.5137 315.024 39.7928 307.566 41.3927 292.984L45.0493 259.624C45.8323 252.487 42.89 242.083 39.0906 235.992C28.3049 218.695 21.343 199.292 18.6716 179.083C8.35962 100.803 63.4614 28.9832 141.742 18.6713Z" fill="white"/>
<path d="M141.742 18.6713C220.022 8.35947 291.84 63.4596 302.152 141.74C312.464 220.021 257.365 291.84 179.085 302.152C158.873 304.807 138.327 303.107 118.826 297.167C111.956 295.078 101.145 294.93 94.4517 297.535L63.1848 309.705C49.5137 315.024 39.7928 307.566 41.3927 292.984L45.0493 259.624C45.8323 252.487 42.89 242.083 39.0906 235.992C28.3049 218.695 21.343 199.292 18.6716 179.083C8.35962 100.803 63.4614 28.9832 141.742 18.6713Z" fill="url(#paint2_linear_221_1455)" fill-opacity="0.7"/>
</g>
<path d="M187.127 43.1702C266.083 43.1702 330.09 107.178 330.09 186.135C330.09 265.092 266.083 329.1 187.127 329.1C166.741 329.092 146.593 324.724 128.035 316.288C121.497 313.319 110.798 311.761 103.821 313.469L71.233 321.451C56.9843 324.94 48.3206 316.276 51.8113 302.027L59.7935 269.431C61.5019 262.457 59.9435 251.758 56.9722 245.223C48.538 226.665 44.1698 206.519 44.1604 186.135C44.1604 107.178 108.17 43.1702 187.127 43.1702Z" fill="white"/>
<path d="M187.127 43.1702C266.083 43.1702 330.09 107.178 330.09 186.135C330.09 265.092 266.083 329.1 187.127 329.1C166.741 329.092 146.593 324.724 128.035 316.288C121.497 313.319 110.798 311.761 103.821 313.469L71.233 321.451C56.9843 324.94 48.3206 316.276 51.8113 302.027L59.7935 269.431C61.5019 262.457 59.9435 251.758 56.9722 245.223C48.538 226.665 44.1698 206.519 44.1604 186.135C44.1604 107.178 108.17 43.1702 187.127 43.1702Z" fill="white"/>
<path d="M187.127 43.1702C266.083 43.1702 330.09 107.178 330.09 186.135C330.09 265.092 266.083 329.1 187.127 329.1C166.741 329.092 146.593 324.724 128.035 316.288C121.497 313.319 110.798 311.761 103.821 313.469L71.233 321.451C56.9843 324.94 48.3206 316.276 51.8113 302.027L59.7935 269.431C61.5019 262.457 59.9435 251.758 56.9722 245.223C48.538 226.665 44.1698 206.519 44.1604 186.135C44.1604 107.178 108.17 43.1702 187.127 43.1702Z" fill="url(#paint3_linear_221_1455)" fill-opacity="0.7"/>
<path d="M186.631 94.6179C164.82 94.6179 147.056 112.12 147.056 133.609V166.804C134.943 177.522 127.268 193.017 127.268 210.262C127.268 242.486 153.924 268.748 186.631 268.748C219.337 268.748 245.993 242.486 245.993 210.262C245.993 193.017 238.317 177.522 226.206 166.804V133.609C226.206 112.12 208.441 94.6179 186.631 94.6179ZM186.631 108.494C201.361 108.494 212.141 119.096 212.141 133.609V157.957C204.179 154.039 196.112 151.776 186.631 151.776C177.149 151.776 169.082 154.039 161.12 157.957V133.609C161.12 119.096 171.9 108.494 186.631 108.494ZM186.631 190.741C190.13 190.741 193.486 192.113 195.961 194.553C198.434 196.993 199.824 200.301 199.822 203.751C199.816 208.391 197.303 212.676 193.227 214.997V223.145C193.293 226.81 190.245 229.791 186.566 229.732C182.888 229.674 179.968 226.732 180.035 223.145V214.997C175.958 212.676 173.445 208.391 173.439 203.751C173.438 200.302 174.827 196.993 177.301 194.553C179.776 192.113 183.131 190.741 186.631 190.741Z" fill="white"/>
<defs>
<linearGradient id="paint0_linear_221_1455" x1="171.192" y1="34.4388" x2="185.25" y2="320.023" gradientUnits="userSpaceOnUse">
<stop stop-color="#E62497"/>
<stop offset="0.526042" stop-color="#7036CE"/>
</linearGradient>
<linearGradient id="paint1_linear_221_1455" x1="156.869" y1="24.9153" x2="181.764" y2="309.759" gradientUnits="userSpaceOnUse">
<stop stop-color="#E62497"/>
<stop offset="0.526042" stop-color="#7036CE"/>
</linearGradient>
<linearGradient id="paint2_linear_221_1455" x1="141.741" y1="18.6715" x2="179.084" y2="302.152" gradientUnits="userSpaceOnUse">
<stop stop-color="#E62497"/>
<stop offset="0.526042" stop-color="#7036CE"/>
</linearGradient>
<linearGradient id="paint3_linear_221_1455" x1="187.125" y1="43.1702" x2="187.125" y2="329.1" gradientUnits="userSpaceOnUse">
<stop stop-color="#E62497"/>
<stop offset="0.526042" stop-color="#7036CE"/>
</linearGradient>
</defs>
</svg>
